<?xml version="1.0" encoding="UTF-8" standalone="no"?>
<!DOCTYPE svg PUBLIC "-//W3C//DTD SVG 1.1//EN"
 "http://www.w3.org/Graphics/SVG/1.1/DTD/svg11.dtd">
<!-- Generated by graphviz version 2.43.0 (0)
 -->
<!-- Title: G Pages: 1 -->
<svg width="369pt" height="98pt"
 viewBox="0.00 0.00 369.00 98.00" xmlns="http://www.w3.org/2000/svg" xmlns:xlink="http://www.w3.org/1999/xlink">
<g id="graph0" class="graph" transform="scale(1 1) rotate(0) translate(4 94)">
<title>G</title>
<polygon fill="white" stroke="transparent" points="-4,4 -4,-94 365,-94 365,4 -4,4"/>
<!-- local_file.key_details -->
<g id="node1" class="node">
<title>local_file.key_details</title>
<polygon fill="none" stroke="black" points="361,-36 204,-36 204,0 361,0 361,-36"/>
<text text-anchor="middle" x="282.5" y="-14.3" font-family="sans-serif" font-size="14.00">local_file.key_details</text>
</g>
<!-- tls_private_key.pvtkey -->
<g id="node4" class="node">
<title>tls_private_key.pvtkey</title>
<polygon fill="none" stroke="black" points="168,-36 0,-36 0,0 168,0 168,-36"/>
<text text-anchor="middle" x="84" y="-14.3" font-family="sans-serif" font-size="14.00">tls_private_key.pvtkey</text>
</g>
<!-- local_file.key_details&#45;&gt;tls_private_key.pvtkey -->
<g id="edge1" class="edge">
<title>local_file.key_details&#45;&gt;tls_private_key.pvtkey</title>
<path fill="none" stroke="black" d="M203.84,-18C195.43,-18 186.82,-18 178.25,-18"/>
<polygon fill="black" stroke="black" points="178.24,-14.5 168.24,-18 178.24,-21.5 178.24,-14.5"/>
</g>
<!-- local_file.krill -->
<g id="node2" class="node">
<title>local_file.krill</title>
<polygon fill="none" stroke="black" points="137,-90 31,-90 31,-54 137,-54 137,-90"/>
<text text-anchor="middle" x="84" y="-68.3" font-family="sans-serif" font-size="14.00">local_file.krill</text>
</g>
<!-- local_file.whale -->
<g id="node3" class="node">
<title>local_file.whale</title>
<polygon fill="none" stroke="black" points="343,-90 222,-90 222,-54 343,-54 343,-90"/>
<text text-anchor="middle" x="282.5" y="-68.3" font-family="sans-serif" font-size="14.00">local_file.whale</text>
</g>
<!-- local_file.whale&#45;&gt;local_file.krill -->
<g id="edge2" class="edge">
<title>local_file.whale&#45;&gt;local_file.krill</title>
<path fill="none" stroke="black" d="M221.74,-72C198.24,-72 171.24,-72 147.47,-72"/>
<polygon fill="black" stroke="black" points="147.16,-68.5 137.16,-72 147.16,-75.5 147.16,-68.5"/>
</g>
</g>
</svg>
